# AST/ASF file generated using VICON BodyLanguage
# -----------------------------------------------
:version 1.10
:name VICON
:units
  mass 1.0
  length 0.45
  angle deg
:documentation
   .ast/.asf automatically generated from VICON data using
   VICON BodyBuilder and BodyLanguage model FoxedUp or BRILLIANT.MOD
:root
   order TX TY TZ RX RY RZ
   axis XYZ
   position 0 0 0  
   orientation 0 0 0 
:bonedata
  begin
     id 1 
     name lhipjoint
     direction 0.78388 -0.462562 0.414208 
     length 3.01181 
     axis 0 0 0  XYZ
  end
  begin
     id 2 
     name lfemur
     direction 0.34202 -0.939693 0  
     length 6.04673  
     axis 0 0 20  XYZ
    dof rx ry rz
    limits (-160.0 20.0)
           (-70.0 70.0)
           (-60.0 70.0)
  end
  begin
     id 3 
     name ltibia
     direction 0.34202 -0.939693 0   
     length 7.211   
     axis 0 0 20   XYZ
    dof rx
    limits (-10.0 170.0)
  end
  begin
     id 4 
     name lfoot
     direction 0.121887 -0.334882 0.934344   
     length 2.13567   
     axis -90 7.62852e-016 20   XYZ
    dof rx rz
    limits (-45.0 90.0)
           (-70.0 20.0)
  end
  begin
     id 5 
     name ltoes
     direction 1.53555e-011 -4.2179e-011 1   
     length 1.05957   
     axis -90 7.62852e-016 20   XYZ
    dof rx
    limits (-90.0 20.0)
  end
  begin
     id 6 
     name rhipjoint
     direction -0.769387 -0.475875 0.426129   
     length 2.92756  
     axis 0 0 0  XYZ 
  end
  begin
     id 7 
     name rfemur
     direction -0.34202 -0.939693 0   
     length 6.35468   
     axis 0 0 -20   XYZ
    dof rx ry rz
    limits (-160.0 20.0)
           (-70.0 70.0)
           (-70.0 60.0)
  end
  begin
     id 8 
     name rtibia
     direction -0.34202 -0.939693 0   
     length 7.37886   
     axis 0 0 -20   XYZ
    dof rx
    limits (-10.0 170.0)
 end
 begin
     id 9 
     name rfoot
     direction -0.101763 -0.279592 0.954711   
     length 2.21478  
     axis -90 -7.62852e-016 -20   XYZ
    dof rx rz
    limits (-45.0 90.0)
           (-20.0 70.0)
  end
  begin
     id 10 
     name rtoes
     direction -1.53494e-011 -4.21851e-011 1   
     length 1.10506   
     axis -90 -7.62852e-016 -20   XYZ
    dof rx
    limits (-90.0 20.0)
  end
  begin
     id 11 
     name lowerback
     direction 0.00747405 0.999267 0.0375481   
     length 2.13259   
     axis 0 0 0   XYZ
    dof rx ry rz
    limits (-20.0 45.0)
           (-30.0 30.0)
           (-30.0 30.0)
  end
  begin
     id 12 
     name upperback
     direction 0.00661626 0.996177 0.0871029   
     length 2.10528   
     axis 0 0 0   XYZ
    dof rx ry rz
    limits (-20.0 45.0)
           (-30.0 30.0)
           (-30.0 30.0)
  end
  begin
     id 13 
     name thorax
     direction 0.00320659 0.997679 0.0680167   
     length 2.11338   
     axis 0 0 0   XYZ
    dof rx ry rz
    limits (-20.0 45.0)
           (-30.0 30.0)
           (-30.0 30.0)
  end
  begin
     id 14 
     name lowerneck
     direction 0.0374841 0.973033 0.227602   
     length 1.42765   
     axis 0 0 0   XYZ
    dof rx ry rz
    limits (-20.0 45.0)
           (-30.0 30.0)
           (-30.0 30.0)
  end
  begin
     id 15 
     name upperneck
     direction 0.00481585 0.989155 -0.146795   
     length 1.47593   
     axis 0 0 0   XYZ
    dof rx ry rz
    limits (-20.0 45.0)
           (-30.0 30.0)
           (-30.0 30.0)
  end
  begin
     id 16
     name head
     direction -0.00292522 0.997206 -0.0746423  
     length 1.48116  
     axis 0 0 0   XYZ
    dof rx ry rz
    limits (-20.0 45.0)
           (-30.0 30.0)
           (-30.0 30.0)
  end
  begin
     id 17 
     name lclavicle
     direction 0.951444 0.305606 0.0368784  
     length 3.01855  
     axis 0 0 0   XYZ
    dof ry rz
    limits (-20.0 10.0)
           (0.0 20.0)
  end
  begin
     id 18 
     name lhumerus
     direction 1 -4.48977e-011 2.61664e-027   
     length 5.52731   
     axis 180 -30 -90   XYZ
    dof rx ry rz
    limits (-60.0 90.0)
           (-90.0 90.0)
           (-90.0 90.0)
  end
  begin
     id 19
     name lradius
     direction 1 -4.48944e-011 8.22157e-027   
     length 3.11059   
     axis 180 -30 -90   XYZ
    dof rx
    limits (-10.0 170.0)
  end
  begin
     id 20
     name lwrist
     direction 1 -4.48976e-011 1.5779e-026   
     length 1.5553   
     axis -1.15221e-014 90 90   XYZ
    dof ry
    limits (-180.0 0.0)
 end
  begin
     id 21 
     name lhand
     direction 1 -4.49025e-011 3.1558e-026   
     length 0.419626   
     axis -2.01367e-014 90 90   XYZ
    dof rx rz
    limits (-90.0 90.0)
           (-45.0 45.0)
  end
  begin
     id 22 
     name lfingers
     direction 1 -4.4904e-011 6.31161e-026   
     length 0.338313   
     axis -4.02734e-014 90 90   XYZ
    dof rx
    limits (0.0 90.0)
  end
  begin
     id 23
     name lthumb
     direction 0.707107 -6.35004e-011 0.707107   
     length 0.485752   
     axis -90 45 2.85299e-015   XYZ
    dof rx rz
    limits (-45.0 45.0)
           (-45.0 45.0)
  end
  begin
     id 24 
     name rclavicle
     direction -0.968876 0.223791 0.105816   
     length 3.04177  
     axis 0 0 0   XYZ 
    dof ry rz
    limits (-10.0 20.0)
           (-20.0 0.0)
  end
  begin
     id 25 
     name rhumerus
     direction -1 -4.48962e-011 -1.01384e-027  
     length 5.25396   
     axis 180 30 90   XYZ
    dof rx ry rz
    limits (-90.0 60.0)
           (-90.0 90.0)
           (-90.0 90.0)
  end
  begin
     id 26 
     name rradius
     direction -1 -4.48955e-011 8.88542e-027   
     length 3.10567   
     axis 180 30 90   XYZ
    dof rx
    limits (-10.0 170.0)
  end
  begin
     id 27 
     name rwrist
     direction -1 -4.48994e-011 1.5779e-026   
     length 1.55283   
     axis -1.15221e-014 -90 -90   XYZ
    dof ry
    limits (-180.0 0.0)
  end
  begin
     id 28
     name rhand
     direction -1 -4.48891e-011 3.1558e-026   
     length 0.498676   
     axis -2.01367e-014 -90 -90   XYZ
    dof rx rz
    limits (-90.0 90.0)
           (-45.0 45.0)
  end
  begin
     id 29
     name rfingers
     direction -1 -4.48972e-011 6.31161e-026   
     length 0.402045   
     axis -4.02734e-014 -90 -90   XYZ
    dof rx
    limits (0.0 90.0)
  end
  begin
     id 30
     name rthumb
     direction -0.707107 -6.34849e-011 0.707107   
     length 0.577259   
     axis -90 -45 -2.85299e-015   XYZ
    dof rx rz
    limits (-45.0 45.0)
           (-45.0 45.0)
  end
:hierarchy
  begin
    root lhipjoint rhipjoint lowerback
    lhipjoint lfemur
    lfemur ltibia
    ltibia lfoot
    lfoot ltoes
    rhipjoint rfemur
    rfemur rtibia
    rtibia rfoot
    rfoot rtoes
    lowerback upperback
    upperback thorax
    thorax lowerneck lclavicle rclavicle
    lowerneck upperneck
    upperneck head
    lclavicle lhumerus
    lhumerus lradius
    lradius lwrist
    lwrist lhand lthumb
    lhand lfingers
    rclavicle rhumerus
    rhumerus rradius
    rradius rwrist
    rwrist rhand rthumb
    rhand rfingers
  end

#!OML:ASF H:\Pregnant\Project 1\Capture day 1\Session 1\femalepreg.ASF
:FULLY-SPECIFIED
:DEGREES
376
root -9.46437 15.9307 -15.6509 -165.226 22.0528 -177.184
lowerback -9.25246 1.37861 10.5163
upperback -3.74327 1.3307 2.7541
thorax 1.38872 0.801699 -2.87618
lowerneck -18.0926 -8.00306 -2.98505
upperneck 27.6033 -10.2135 1.755
head 12.3814 -4.27168 -0.393681
rclavicle 8.11538e-014 -6.99722e-014
rhumerus -24.817 0.748251 -83.2516
rradius 27.789
rwrist -7.10741
rhand -18.0452 -13.5903
rfingers 7.12502
rthumb 8.22672 -43.4101
lclavicle 8.11538e-014 -6.99722e-014
lhumerus -48.8565 -13.6118 93.4868
lradius 28.874
lwrist 36.2763
lhand -5.14674 1.62857
lfingers 7.12502
lthumb 20.6524 30.5498
rfemur -26.7741 14.2754 31.4413
rtibia 34.3835
rfoot -17.3437 -1.66925
rtoes 2.7709
lfemur -50.0959 -4.82343 -16.5357
ltibia 62.5197
lfoot -5.29582 1.83541
ltoes -27.3899
377
root -9.42442 15.9322 -15.7509 -165.188 22.5107 -177.279
lowerback -9.24938 1.4541 10.4741
upperback -3.70988 1.42108 2.64885
thorax 1.43684 0.843859 -2.95258
lowerneck -18.0431 -8.02239 -3.03003
upperneck 27.5853 -10.2701 1.89408
head 12.3781 -4.28373 -0.342021
rclavicle -5.06901e-014 -5.88403e-014
rhumerus -24.5809 0.50303 -83.3497
rradius 27.5452
rwrist -6.96364
rhand -17.8714 -13.5806
rfingers 7.12502
rthumb 8.39447 -43.3938
lclavicle -5.06901e-014 -5.88403e-014
lhumerus -48.7843 -13.7919 93.3711
lradius 29.4307
lwrist 37.191
lhand -5.80749 1.23969
lfingers 7.12502
lthumb 20.0174 30.2286
rfemur -26.3349 14.5051 31.3692
rtibia 34.279
rfoot -17.6051 -1.54693
rtoes 2.84712
lfemur -50.4259 -5.14252 -16.4156
ltibia 60.7767
lfoot -5.37965 2.62002
ltoes -27.6863
378
root -9.38429 15.9339 -15.851 -165.13 22.9542 -177.34
lowerback -9.25007 1.52586 10.4649
upperback -3.68335 1.50562 2.55114
thorax 1.47927 0.88337 -3.03994
lowerneck -17.9655 -8.04344 -3.09364
upperneck 27.5381 -10.3295 2.05203
head 12.3602 -4.29819 -0.27933
rclavicle 2.75317e-014 -2.54444e-014
rhumerus -24.4296 0.409199 -83.4831
rradius 27.4259
rwrist -6.94555
rhand -17.7227 -13.6393
rfingers 7.12502
rthumb 8.53793 -43.4467
lclavicle 2.75317e-014 -2.54444e-014
lhumerus -48.696 -13.9232 93.2091
lradius 29.9905
lwrist 38.1004
lhand -6.56998 0.735862
lfingers 7.12502
lthumb 19.2844 29.7997
rfemur -25.8759 14.7205 31.3279
rtibia 34.1272
rfoot -17.8399 -1.42265
rtoes 2.83792
lfemur -50.7301 -5.47749 -16.2316
ltibia 58.9674
lfoot -5.40709 3.28634
ltoes -27.9685
379
root -9.344 15.9357 -15.9515 -165.049 23.373 -177.366
lowerback -9.25556 1.5931 10.4962
upperback -3.6641 1.58245 2.45757
thorax 1.51619 0.919165 -3.14606
lowerneck -17.8854 -8.06762 -3.15995
upperneck 27.4846 -10.3952 2.21814
head 12.3403 -4.31507 -0.214122
rclavicle 2.01766e-014 -7.15625e-014
rhumerus -24.3077 0.355186 -83.633
rradius 27.3271
rwrist -6.94681
rhand -17.5911 -13.7097
rfingers 7.12502
rthumb 8.66495 -43.5119
lclavicle 2.01766e-014 -7.15625e-014
lhumerus -48.5916 -13.9986 92.9914
lradius 30.5501
lwrist 38.9729
lhand -7.36105 0.200765
lfingers 7.12502
lthumb 18.5235 29.3388
rfemur -25.4032 14.9231 31.3199
rtibia 33.9359
rfoot -18.0454 -1.30561
rtoes 2.74299
lfemur -51.0167 -5.83339 -15.9779
ltibia 57.1048
lfoot -5.40998 3.81321
ltoes -28.146
380
root -9.30353 15.9375 -16.0523 -164.94 23.7707 -177.367
lowerback -9.27727 1.65489 10.5529
upperback -3.65249 1.65003 2.36952
thorax 1.55316 0.95085 -3.26117
lowerneck -17.819 -8.09611 -3.22138
upperneck 27.4425 -10.4637 2.36772
head 12.3266 -4.33449 -0.157117
rclavicle 3.90115e-014 -4.29375e-014
rhumerus -24.2178 0.336643 -83.7927
rradius 27.2588
rwrist -6.95003
rhand -17.4643 -13.7886
rfingers 7.12502
rthumb 8.78733 -43.5857
lclavicle 3.90115e-014 -4.29375e-014
lhumerus -48.4702 -13.9718 92.7068
lradius 31.1036
lwrist 39.7504
lhand -8.16104 -0.365371
lfingers 7.12502
lthumb 17.7539 28.8442
rfemur -24.9309 15.1223 31.3306
rtibia 33.7145
rfoot -18.2138 -1.18785
rtoes 2.64265
lfemur -51.2942 -6.20656 -15.6664
ltibia 55.1946
lfoot -5.40519 4.18176
ltoes -28.2084
381
root -9.26254 15.9387 -16.1534 -164.806 24.1577 -177.344
lowerback -9.31088 1.71527 10.6286
upperback -3.64539 1.71394 2.28357
thorax 1.5919 0.981081 -3.38466
lowerneck -17.8192 -8.13601 -3.24979
upperneck 27.4514 -10.5432 2.46252
head 12.3412 -4.35991 -0.130979
rclavicle -4.18442e-014 -9.54166e-015
rhumerus -24.1419 0.330434 -83.9596
rradius 27.1997
rwrist -6.93967
rhand -17.3348 -13.8781
rfingers 7.12502
rthumb 8.91228 -43.6699
lclavicle -4.18442e-014 -9.54166e-015
lhumerus -48.3263 -13.8459 92.3511
lradius 31.6494
lwrist 40.419
lhand -8.9314 -0.910947
lfingers 7.12502
lthumb 17.0125 28.3641
rfemur -24.4632 15.3235 31.3579
rtibia 33.4686
rfoot -18.3507 -1.06482
rtoes 2.5135
lfemur -51.5615 -6.58682 -15.3013
ltibia 53.2422
lfoot -5.38718 4.37796
ltoes -28.1554
382
root -9.22073 15.9399 -16.255 -164.651 24.5526 -177.305
lowerback -9.35759 1.77679 10.708
upperback -3.64308 1.77857 2.20178
thorax 1.63313 1.01213 -3.50549
lowerneck -17.8625 -8.18057 -3.24791
upperneck 27.4989 -10.6237 2.50562
head 12.3745 -4.3875 -0.131321
rclavicle 1.96797e-014 2.38542e-014
rhumerus -24.0937 0.342848 -84.1293
rradius 27.1658
rwrist -6.91451
rhand -17.1991 -13.952
rfingers 7.12502
rthumb 9.04319 -43.7382
lclavicle 1.96797e-014 2.38542e-014
lhumerus -48.1667 -13.6353 91.9438
lradius 32.1838
lwrist 40.99
lhand -9.67868 -1.43138
lfingers 7.12502
lthumb 16.2931 27.9041
rfemur -23.9994 15.538 31.3923
rtibia 33.2029
rfoot -18.471 -0.918984
rtoes 2.47637
lfemur -51.8071 -6.96348 -14.8916
ltibia 51.2489
lfoot -5.32779 4.41557
ltoes -28.0322
383
root -9.17827 15.941 -16.3567 -164.479 24.9598 -177.259
lowerback -9.4156 1.84783 10.7864
upperback -3.65231 1.85648 2.1178
thorax 1.67057 1.04978 -3.62634
lowerneck -17.8736 -8.23235 -3.25422
upperneck 27.5442 -10.7089 2.54118
head 12.4006 -4.4192 -0.132494
rclavicle 4.06018e-014 5.88403e-014
rhumerus -24.0897 0.343726 -84.289
rradius 27.1546
rwrist -6.86775
rhand -17.0558 -13.9937
rfingers 7.12502
rthumb 9.18148 -43.7739
lclavicle 4.06018e-014 5.88403e-014
lhumerus -48.0055 -13.3912 91.5102
lradius 32.7099
lwrist 41.4884
lhand -10.3776 -1.86784
lfingers 7.12502
lthumb 15.62 27.5215
rfemur -23.5441 15.7589 31.4212
rtibia 32.9192
rfoot -18.5782 -0.732259
rtoes 2.55207
lfemur -52.029 -7.34139 -14.4477
ltibia 49.2165
lfoot -5.22713 4.32301
ltoes -27.9309
384
root -9.13497 15.9422 -16.4589 -164.298 25.3732 -177.215
lowerback -9.47982 1.92348 10.854
upperback -3.67532 1.94285 2.03141
thorax 1.69827 1.09128 -3.74272
lowerneck -17.85 -8.28409 -3.27087
upperneck 27.5839 -10.7914 2.58185
head 12.4185 -4.45035 -0.128061
rclavicle 5.97348e-014 -1.51076e-014
rhumerus -24.1331 0.352857 -84.4422
rradius 27.1613
rwrist -6.82195
rhand -16.9052 -14.0145
rfingers 7.12502
rthumb 9.32682 -43.7882
lclavicle 5.97348e-014 -1.51076e-014
lhumerus -47.8535 -13.1559 91.0745
lradius 33.2318
lwrist 41.9689
lhand -11.1019 -2.28785
lfingers 7.12502
lthumb 14.9223 27.1546
rfemur -23.0906 15.9848 31.4411
rtibia 32.6187
rfoot -18.6786 -0.513582
rtoes 2.68235
lfemur -52.2208 -7.73213 -13.9736
ltibia 47.1467
lfoot -5.10168 4.12018
ltoes -27.9013
385
root -9.09092 15.9437 -16.5614 -164.123 25.7835 -177.185
lowerback -9.54462 1.99587 10.8948
upperback -3.70994 2.02891 1.94633
thorax 1.7137 1.13218 -3.84303
lowerneck -17.7779 -8.33311 -3.31557
upperneck 27.6034 -10.8667 2.64387
head 12.4217 -4.47957 -0.107658
rclavicle -8.14023e-014 2.06736e-014
rhumerus -24.2254 0.367705 -84.5802
rradius 27.1955
rwrist -6.77472
rhand -16.733 -14.0192
rfingers 7.12502
rthumb 9.49293 -43.7853
lclavicle -8.14023e-014 2.06736e-014
lhumerus -47.7091 -12.9216 90.6435
lradius 33.7472
lwrist 42.4323
lhand -11.8505 -2.67792
lfingers 7.12502
lthumb 14.2011 26.8166
rfemur -22.6321 16.2058 31.4429
rtibia 32.304
rfoot -18.7682 -0.27489
rtoes 2.8895
lfemur -52.3756 -8.1528 -13.479
ltibia 45.0427
lfoot -4.99263 3.83072
ltoes -27.989
386
root -9.04629 15.945 -16.6642 -163.954 26.1853 -177.168
lowerback -9.60314 2.06096 10.9122
upperback -3.75357 2.10955 1.86408
thorax 1.715 1.16982 -3.92831
lowerneck -17.6418 -8.3713 -3.39792
upperneck 27.5735 -10.9291 2.75548
head 12.398 -4.50331 -0.0573596
rclavicle -3.38928e-014 2.38542e-015
rhumerus -24.3601 0.408743 -84.7088
rradius 27.2611
rwrist -6.74891
rhand -16.5623 -14.0021
rfingers 7.12502
rthumb 9.65769 -43.7607
lclavicle -3.38928e-014 2.38542e-015
lhumerus -47.5677 -12.6968 90.221
lradius 34.2551
lwrist 42.8898
lhand -12.655 -3.08509
lfingers 7.12502
lthumb 13.4257 26.4623
rfemur -22.1651 16.4101 31.434
rtibia 31.9779
rfoot -18.849 -0.0233804
rtoes 3.12233
lfemur -52.4966 -8.60585 -12.9614
ltibia 42.9128
lfoot -4.92436 3.4798
ltoes -28.1836
387
root -9.00095 15.946 -16.7672 -163.792 26.5818 -177.155
lowerback -9.65061 2.11814 10.9081
upperback -3.79862 2.18311 1.7856
thorax 1.70726 1.20358 -3.99899
lowerneck -17.5028 -8.40262 -3.49006
upperneck 27.5289 -10.9852 2.88732
head 12.37 -4.52346 0.0032528
rclavicle -2.94201e-014 -2.70347e-014
rhumerus -24.5152 0.472874 -84.8331
rradius 27.3457
rwrist -6.74674
rhand -16.395 -13.9735
rfingers 7.12502
rthumb 9.81906 -43.7246
lclavicle -2.94201e-014 -2.70347e-014
lhumerus -47.4116 -12.4733 89.793
lradius 34.7486
lwrist 43.321
lhand -13.4636 -3.44801
lfingers 7.12502
lthumb 12.6463 26.1491
rfemur -21.6864 16.6032 31.4226
rtibia 31.6436
rfoot -18.9282 0.22663
rtoes 3.35624
lfemur -52.5847 -9.08801 -12.414
ltibia 40.7709
lfoot -4.92119 3.09486
ltoes -28.416
388
root -8.95495 15.9466 -16.8707 -163.638 26.9756 -177.152
lowerback -9.69441 2.16261 10.8752
upperback -3.8386 2.24201 1.71513
thorax 1.69988 1.23029 -4.04702
lowerneck -17.389 -8.42056 -3.57126
upperneck 27.489 -11.0218 3.00409
head 12.3465 -4.53579 0.0585233
rclavicle 3.23025e-015 -9.14409e-014
rhumerus -24.6764 0.566983 -84.9532
rradius 27.4471
rwrist -6.76442
rhand -16.2307 -13.9334
rfingers 7.12502
rthumb 9.97757 -43.677
lclavicle 3.23025e-015 -9.14409e-014
lhumerus -47.2321 -12.2227 89.3527
lradius 35.2181
lwrist 43.6908
lhand -14.2518 -3.78653
lfingers 7.12502
lthumb 11.8863 25.8561
rfemur -21.1927 16.7782 31.4063
rtibia 31.3018
rfoot -19.0033 0.478756
rtoes 3.63186
lfemur -52.6437 -9.5994 -11.8415
ltibia 38.6346
lfoot -4.97112 2.70959
ltoes -28.6404
389
root -8.90807 15.9463 -16.9742 -163.489 27.3891 -177.143
lowerback -9.73209 2.20278 10.8178
upperback -3.86326 2.29564 1.65287
thorax 1.70384 1.25509 -4.07329
lowerneck -17.3475 -8.43143 -3.61825
upperneck 27.4692 -11.0506 3.08737
head 12.3406 -4.54455 0.0937358
rclavicle -4.85532e-014 1.74931e-014
rhumerus -24.8148 0.681938 -85.0726
rradius 27.544
rwrist -6.80077
rhand -16.0762 -13.8845
rfingers 7.12502
rthumb 10.1266 -43.6208
lclavicle -4.85532e-014 1.74931e-014
lhumerus -47.0087 -11.9301 88.8831
lradius 35.6616
lwrist 43.9662
lhand -14.9902 -4.08615
lfingers 7.12502
lthumb 11.1742 25.5963
rfemur -20.6821 16.9414 31.3961
rtibia 30.9505
rfoot -19.0789 0.738642
rtoes 3.85805
lfemur -52.6763 -10.1141 -11.2392
ltibia 36.5269
lfoot -5.06767 2.33922
ltoes -28.8589
390
root -8.86001 15.9452 -17.0781 -163.347 27.8238 -177.13
lowerback -9.76816 2.23842 10.736
upperback -3.86979 2.34267 1.59792
thorax 1.72434 1.27755 -4.07879
lowerneck -17.4003 -8.43581 -3.62284
upperneck 27.4876 -11.0712 3.12399
head 12.3625 -4.5493 0.101682
rclavicle -4.47762e-014 4.77083e-015
rhumerus -24.9314 0.810795 -85.1932
rradius 27.6395
rwrist -6.84845
rhand -15.9418 -13.8146
rfingers 7.12502
rthumb 10.2563 -43.5445
lclavicle -4.47762e-014 4.77083e-015
lhumerus -46.7354 -11.644 88.3996
lradius 36.073
lwrist 44.1965
lhand -15.6631 -4.31432
lfingers 7.12502
lthumb 10.5252 25.4022
rfemur -20.1474 17.0995 31.3925
rtibia 30.5869
rfoot -19.1572 0.99872
rtoes 4.00397
lfemur -52.6856 -10.6338 -10.6077
ltibia 34.4695
lfoot -5.14504 2.0122
ltoes -29.0141
